<?xml version="1.0" encoding="UTF-8" standalone="no"?>
<!DOCTYPE svg PUBLIC "-//W3C//DTD SVG 1.1//EN"
 "http://www.w3.org/Graphics/SVG/1.1/DTD/svg11.dtd">
<!-- Generated by graphviz version 8.1.0 (20230707.0739)
 -->
<!-- Pages: 1 -->
<svg width="838pt" height="260pt"
 viewBox="0.00 0.00 837.75 260.00" xmlns="http://www.w3.org/2000/svg" xmlns:xlink="http://www.w3.org/1999/xlink">
<g id="graph0" class="graph" transform="scale(1 1) rotate(0) translate(4 256)">
<polygon fill="white" stroke="none" points="-4,4 -4,-256 833.75,-256 833.75,4 -4,4"/>
<!-- [root] google_compute_network.dep1 (expand) -->
<g id="node1" class="node">
<title>[root] google_compute_network.dep1 (expand)</title>
<polygon fill="none" stroke="black" points="193.75,-108 0,-108 0,-72 193.75,-72 193.75,-108"/>
<text text-anchor="middle" x="96.88" y="-84.58" font-family="Times New Roman,serif" font-size="14.00">google_compute_network.dep1</text>
</g>
<!-- [root] provider[&quot;registry.terraform.io/hashicorp/google&quot;] -->
<g id="node5" class="node">
<title>[root] provider[&quot;registry.terraform.io/hashicorp/google&quot;]</title>
<polygon fill="none" stroke="black" points="414.88,-36 137.31,-18 414.87,0 692.44,-18 414.88,-36"/>
<text text-anchor="middle" x="414.88" y="-12.58" font-family="Times New Roman,serif" font-size="14.00">provider[&quot;registry.terraform.io/hashicorp/google&quot;]</text>
</g>
<!-- [root] google_compute_network.dep1 (expand)&#45;&gt;[root] provider[&quot;registry.terraform.io/hashicorp/google&quot;] -->
<g id="edge1" class="edge">
<title>[root] google_compute_network.dep1 (expand)&#45;&gt;[root] provider[&quot;registry.terraform.io/hashicorp/google&quot;]</title>
<path fill="none" stroke="black" d="M176.3,-71.52C227.46,-60.26 293.43,-45.73 343.02,-34.82"/>
<polygon fill="black" stroke="black" points="343.65,-38.04 352.67,-32.47 342.15,-31.21 343.65,-38.04"/>
</g>
<!-- [root] google_compute_network.dep2 (expand) -->
<g id="node2" class="node">
<title>[root] google_compute_network.dep2 (expand)</title>
<polygon fill="none" stroke="black" points="405.75,-108 212,-108 212,-72 405.75,-72 405.75,-108"/>
<text text-anchor="middle" x="308.88" y="-84.58" font-family="Times New Roman,serif" font-size="14.00">google_compute_network.dep2</text>
</g>
<!-- [root] google_compute_network.dep2 (expand)&#45;&gt;[root] provider[&quot;registry.terraform.io/hashicorp/google&quot;] -->
<g id="edge2" class="edge">
<title>[root] google_compute_network.dep2 (expand)&#45;&gt;[root] provider[&quot;registry.terraform.io/hashicorp/google&quot;]</title>
<path fill="none" stroke="black" d="M335.35,-71.52C349.47,-62.19 366.97,-50.64 381.95,-40.74"/>
<polygon fill="black" stroke="black" points="383.49,-43.26 389.91,-34.83 379.63,-37.42 383.49,-43.26"/>
</g>
<!-- [root] google_compute_network.dep3 (expand) -->
<g id="node3" class="node">
<title>[root] google_compute_network.dep3 (expand)</title>
<polygon fill="none" stroke="black" points="617.75,-108 424,-108 424,-72 617.75,-72 617.75,-108"/>
<text text-anchor="middle" x="520.88" y="-84.58" font-family="Times New Roman,serif" font-size="14.00">google_compute_network.dep3</text>
</g>
<!-- [root] google_compute_network.dep3 (expand)&#45;&gt;[root] provider[&quot;registry.terraform.io/hashicorp/google&quot;] -->
<g id="edge3" class="edge">
<title>[root] google_compute_network.dep3 (expand)&#45;&gt;[root] provider[&quot;registry.terraform.io/hashicorp/google&quot;]</title>
<path fill="none" stroke="black" d="M494.4,-71.52C480.28,-62.19 462.78,-50.64 447.8,-40.74"/>
<polygon fill="black" stroke="black" points="450.12,-37.42 439.84,-34.83 446.26,-43.26 450.12,-37.42"/>
</g>
<!-- [root] google_compute_network.dep4 (expand) -->
<g id="node4" class="node">
<title>[root] google_compute_network.dep4 (expand)</title>
<polygon fill="none" stroke="black" points="829.75,-108 636,-108 636,-72 829.75,-72 829.75,-108"/>
<text text-anchor="middle" x="732.88" y="-84.58" font-family="Times New Roman,serif" font-size="14.00">google_compute_network.dep4</text>
</g>
<!-- [root] google_compute_network.dep4 (expand)&#45;&gt;[root] provider[&quot;registry.terraform.io/hashicorp/google&quot;] -->
<g id="edge4" class="edge">
<title>[root] google_compute_network.dep4 (expand)&#45;&gt;[root] provider[&quot;registry.terraform.io/hashicorp/google&quot;]</title>
<path fill="none" stroke="black" d="M653.45,-71.52C602.29,-60.26 536.32,-45.73 486.73,-34.82"/>
<polygon fill="black" stroke="black" points="487.6,-31.21 477.08,-32.47 486.1,-38.04 487.6,-31.21"/>
</g>
<!-- [root] provider[&quot;registry.terraform.io/hashicorp/google&quot;] (close) -->
<g id="node6" class="node">
<title>[root] provider[&quot;registry.terraform.io/hashicorp/google&quot;] (close)</title>
<ellipse fill="none" stroke="black" cx="414.88" cy="-162" rx="248.17" ry="18"/>
<text text-anchor="middle" x="414.88" y="-156.57" font-family="Times New Roman,serif" font-size="14.00">[root] provider[&quot;registry.terraform.io/hashicorp/google&quot;] (close)</text>
</g>
<!-- [root] provider[&quot;registry.terraform.io/hashicorp/google&quot;] (close)&#45;&gt;[root] google_compute_network.dep1 (expand) -->
<g id="edge5" class="edge">
<title>[root] provider[&quot;registry.terraform.io/hashicorp/google&quot;] (close)&#45;&gt;[root] google_compute_network.dep1 (expand)</title>
<path fill="none" stroke="black" d="M339.51,-144.41C293.66,-134.32 234.82,-121.37 186.57,-110.74"/>
<polygon fill="black" stroke="black" points="187.65,-107.18 177.13,-108.45 186.15,-114.01 187.65,-107.18"/>
</g>
<!-- [root] provider[&quot;registry.terraform.io/hashicorp/google&quot;] (close)&#45;&gt;[root] google_compute_network.dep2 (expand) -->
<g id="edge6" class="edge">
<title>[root] provider[&quot;registry.terraform.io/hashicorp/google&quot;] (close)&#45;&gt;[root] google_compute_network.dep2 (expand)</title>
<path fill="none" stroke="black" d="M388.67,-143.7C375.17,-134.78 358.51,-123.78 343.92,-114.14"/>
<polygon fill="black" stroke="black" points="346.42,-110.94 336.14,-108.35 342.56,-116.78 346.42,-110.94"/>
</g>
<!-- [root] provider[&quot;registry.terraform.io/hashicorp/google&quot;] (close)&#45;&gt;[root] google_compute_network.dep3 (expand) -->
<g id="edge7" class="edge">
<title>[root] provider[&quot;registry.terraform.io/hashicorp/google&quot;] (close)&#45;&gt;[root] google_compute_network.dep3 (expand)</title>
<path fill="none" stroke="black" d="M441.08,-143.7C454.58,-134.78 471.24,-123.78 485.83,-114.14"/>
<polygon fill="black" stroke="black" points="487.19,-116.78 493.61,-108.35 483.33,-110.94 487.19,-116.78"/>
</g>
<!-- [root] provider[&quot;registry.terraform.io/hashicorp/google&quot;] (close)&#45;&gt;[root] google_compute_network.dep4 (expand) -->
<g id="edge8" class="edge">
<title>[root] provider[&quot;registry.terraform.io/hashicorp/google&quot;] (close)&#45;&gt;[root] google_compute_network.dep4 (expand)</title>
<path fill="none" stroke="black" d="M490.24,-144.41C536.09,-134.32 594.93,-121.37 643.18,-110.74"/>
<polygon fill="black" stroke="black" points="643.6,-114.01 652.62,-108.45 642.1,-107.18 643.6,-114.01"/>
</g>
<!-- [root] root -->
<g id="node7" class="node">
<title>[root] root</title>
<ellipse fill="none" stroke="black" cx="414.88" cy="-234" rx="50.07" ry="18"/>
<text text-anchor="middle" x="414.88" y="-228.57" font-family="Times New Roman,serif" font-size="14.00">[root] root</text>
</g>
<!-- [root] root&#45;&gt;[root] provider[&quot;registry.terraform.io/hashicorp/google&quot;] (close) -->
<g id="edge9" class="edge">
<title>[root] root&#45;&gt;[root] provider[&quot;registry.terraform.io/hashicorp/google&quot;] (close)</title>
<path fill="none" stroke="black" d="M414.88,-215.7C414.88,-208.24 414.88,-199.32 414.88,-190.97"/>
<polygon fill="black" stroke="black" points="418.38,-191.1 414.88,-181.1 411.38,-191.1 418.38,-191.1"/>
</g>
</g>
</svg>
