<?xml version="1.0" encoding="UTF-8" standalone="no"?>
<!DOCTYPE svg PUBLIC "-//W3C//DTD SVG 1.1//EN"
 "http://www.w3.org/Graphics/SVG/1.1/DTD/svg11.dtd">
<!-- Generated by graphviz version 8.1.0 (20230707.0739)
 -->
<!-- Pages: 1 -->
<svg width="563pt" height="476pt"
 viewBox="0.00 0.00 563.14 476.00" xmlns="http://www.w3.org/2000/svg" xmlns:xlink="http://www.w3.org/1999/xlink">
<g id="graph0" class="graph" transform="scale(1 1) rotate(0) translate(4 472)">
<polygon fill="white" stroke="none" points="-4,4 -4,-472 559.14,-472 559.14,4 -4,4"/>
<!-- [root] google_compute_network.dep1 (expand) -->
<g id="node1" class="node">
<title>[root] google_compute_network.dep1 (expand)</title>
<polygon fill="none" stroke="black" points="374.44,-324 180.69,-324 180.69,-288 374.44,-288 374.44,-324"/>
<text text-anchor="middle" x="277.57" y="-300.57" font-family="Times New Roman,serif" font-size="14.00">google_compute_network.dep1</text>
</g>
<!-- [root] google_compute_network.dep2 (expand) -->
<g id="node2" class="node">
<title>[root] google_compute_network.dep2 (expand)</title>
<polygon fill="none" stroke="black" points="374.44,-252 180.69,-252 180.69,-216 374.44,-216 374.44,-252"/>
<text text-anchor="middle" x="277.57" y="-228.57" font-family="Times New Roman,serif" font-size="14.00">google_compute_network.dep2</text>
</g>
<!-- [root] google_compute_network.dep1 (expand)&#45;&gt;[root] google_compute_network.dep2 (expand) -->
<g id="edge1" class="edge">
<title>[root] google_compute_network.dep1 (expand)&#45;&gt;[root] google_compute_network.dep2 (expand)</title>
<path fill="none" stroke="black" d="M277.57,-287.7C277.57,-280.24 277.57,-271.32 277.57,-262.97"/>
<polygon fill="black" stroke="black" points="281.07,-263.1 277.57,-253.1 274.07,-263.1 281.07,-263.1"/>
</g>
<!-- [root] google_compute_network.dep3 (expand) -->
<g id="node3" class="node">
<title>[root] google_compute_network.dep3 (expand)</title>
<polygon fill="none" stroke="black" points="374.44,-180 180.69,-180 180.69,-144 374.44,-144 374.44,-180"/>
<text text-anchor="middle" x="277.57" y="-156.57" font-family="Times New Roman,serif" font-size="14.00">google_compute_network.dep3</text>
</g>
<!-- [root] google_compute_network.dep2 (expand)&#45;&gt;[root] google_compute_network.dep3 (expand) -->
<g id="edge2" class="edge">
<title>[root] google_compute_network.dep2 (expand)&#45;&gt;[root] google_compute_network.dep3 (expand)</title>
<path fill="none" stroke="black" d="M277.57,-215.7C277.57,-208.24 277.57,-199.32 277.57,-190.97"/>
<polygon fill="black" stroke="black" points="281.07,-191.1 277.57,-181.1 274.07,-191.1 281.07,-191.1"/>
</g>
<!-- [root] google_compute_network.dep4 (expand) -->
<g id="node4" class="node">
<title>[root] google_compute_network.dep4 (expand)</title>
<polygon fill="none" stroke="black" points="374.44,-108 180.69,-108 180.69,-72 374.44,-72 374.44,-108"/>
<text text-anchor="middle" x="277.57" y="-84.58" font-family="Times New Roman,serif" font-size="14.00">google_compute_network.dep4</text>
</g>
<!-- [root] google_compute_network.dep3 (expand)&#45;&gt;[root] google_compute_network.dep4 (expand) -->
<g id="edge3" class="edge">
<title>[root] google_compute_network.dep3 (expand)&#45;&gt;[root] google_compute_network.dep4 (expand)</title>
<path fill="none" stroke="black" d="M277.57,-143.7C277.57,-136.24 277.57,-127.32 277.57,-118.97"/>
<polygon fill="black" stroke="black" points="281.07,-119.1 277.57,-109.1 274.07,-119.1 281.07,-119.1"/>
</g>
<!-- [root] provider[&quot;registry.terraform.io/hashicorp/google&quot;] -->
<g id="node5" class="node">
<title>[root] provider[&quot;registry.terraform.io/hashicorp/google&quot;]</title>
<polygon fill="none" stroke="black" points="277.57,-36 0,-18 277.57,0 555.14,-18 277.57,-36"/>
<text text-anchor="middle" x="277.57" y="-12.58" font-family="Times New Roman,serif" font-size="14.00">provider[&quot;registry.terraform.io/hashicorp/google&quot;]</text>
</g>
<!-- [root] google_compute_network.dep4 (expand)&#45;&gt;[root] provider[&quot;registry.terraform.io/hashicorp/google&quot;] -->
<g id="edge4" class="edge">
<title>[root] google_compute_network.dep4 (expand)&#45;&gt;[root] provider[&quot;registry.terraform.io/hashicorp/google&quot;]</title>
<path fill="none" stroke="black" d="M277.57,-71.7C277.57,-64.24 277.57,-55.32 277.57,-46.97"/>
<polygon fill="black" stroke="black" points="281.07,-47.1 277.57,-37.1 274.07,-47.1 281.07,-47.1"/>
</g>
<!-- [root] provider[&quot;registry.terraform.io/hashicorp/google&quot;] (close) -->
<g id="node6" class="node">
<title>[root] provider[&quot;registry.terraform.io/hashicorp/google&quot;] (close)</title>
<ellipse fill="none" stroke="black" cx="277.57" cy="-378" rx="248.17" ry="18"/>
<text text-anchor="middle" x="277.57" y="-372.57" font-family="Times New Roman,serif" font-size="14.00">[root] provider[&quot;registry.terraform.io/hashicorp/google&quot;] (close)</text>
</g>
<!-- [root] provider[&quot;registry.terraform.io/hashicorp/google&quot;] (close)&#45;&gt;[root] google_compute_network.dep1 (expand) -->
<g id="edge5" class="edge">
<title>[root] provider[&quot;registry.terraform.io/hashicorp/google&quot;] (close)&#45;&gt;[root] google_compute_network.dep1 (expand)</title>
<path fill="none" stroke="black" d="M277.57,-359.7C277.57,-352.24 277.57,-343.32 277.57,-334.97"/>
<polygon fill="black" stroke="black" points="281.07,-335.1 277.57,-325.1 274.07,-335.1 281.07,-335.1"/>
</g>
<!-- [root] root -->
<g id="node7" class="node">
<title>[root] root</title>
<ellipse fill="none" stroke="black" cx="277.57" cy="-450" rx="50.07" ry="18"/>
<text text-anchor="middle" x="277.57" y="-444.57" font-family="Times New Roman,serif" font-size="14.00">[root] root</text>
</g>
<!-- [root] root&#45;&gt;[root] provider[&quot;registry.terraform.io/hashicorp/google&quot;] (close) -->
<g id="edge6" class="edge">
<title>[root] root&#45;&gt;[root] provider[&quot;registry.terraform.io/hashicorp/google&quot;] (close)</title>
<path fill="none" stroke="black" d="M277.57,-431.7C277.57,-424.24 277.57,-415.32 277.57,-406.97"/>
<polygon fill="black" stroke="black" points="281.07,-407.1 277.57,-397.1 274.07,-407.1 281.07,-407.1"/>
</g>
</g>
</svg>
